<svg xmlns="http://www.w3.org/2000/svg" viewBox="0 0 128 128" role="img" aria-label="eBay Marktoptimierer">
  <defs>
    <linearGradient id="bg" x1="0%" y1="0%" x2="100%" y2="100%">
      <stop offset="0%" stop-color="#0f172a" />
      <stop offset="100%" stop-color="#0f766e" />
    </linearGradient>
  </defs>
  <rect width="128" height="128" rx="28" fill="url(#bg)" />
  <rect x="18" y="18" width="92" height="92" rx="22" fill="#f8fafc" opacity="0.96" />
  <path d="M34 82V46h14c8 0 13 4 13 11 0 4-2 7-5 9 5 2 7 5 7 10 0 8-6 12-15 12H34Zm10-21h3c3 0 5-2 5-4s-2-4-5-4h-3v8Zm0 14h5c3 0 5-2 5-5 0-2-2-4-5-4h-5v9Z" fill="#1d4ed8" />
  <circle cx="83" cy="47" r="10" fill="#f59e0b" />
  <path d="M70 82l13-26 13 26H85l-2-5h-7l-2 5H70Zm9-12h3l-1-3-2 3Z" fill="#dc2626" />
  <path d="M83 91c-12 0-22-10-22-22 0-1 0-2 1-4l8 4v1c0 7 6 13 13 13 4 0 8-2 10-5l7 5c-4 5-10 8-17 8Z" fill="#0f766e" />
</svg>
